<svg width="31" height="50" viewBox="0 0 31 50" fill="none" xmlns="http://www.w3.org/2000/svg">
<g clip-path="url(#clip0_230_12251)">
<path d="M30.0303 15.3215L30.0303 15.3218C30.0402 17.9765 29.3305 20.5841 27.9767 22.8677C26.6229 25.1512 24.6757 27.0252 22.342 28.2904L22.1751 28.3809L22.1103 28.5594L15.3203 47.2646L8.53029 28.5594L8.46559 28.3811L8.29896 28.2906C6.01732 27.0513 4.10439 25.23 2.75451 23.012C1.40463 20.7939 0.66588 18.258 0.613362 15.662C0.560843 13.0661 1.1964 10.5024 2.45547 8.23157C3.71454 5.96074 5.55228 4.06363 7.78193 2.73298C10.0116 1.40234 12.5537 0.685589 15.1501 0.655527C17.7464 0.625465 20.3045 1.28317 22.5643 2.56183C24.8242 3.84049 26.7053 5.69455 28.0166 7.93563C29.3279 10.1767 30.0227 12.7249 30.0303 15.3215Z" fill="#8CFDCC"/>
<path d="M30.0303 15.3215L30.0303 15.3218C30.0402 17.9765 29.3305 20.5841 27.9767 22.8677C26.6229 25.1512 24.6757 27.0252 22.342 28.2904L22.1751 28.3809L22.1103 28.5594L15.3203 47.2646L8.53029 28.5594L8.46559 28.3811L8.29896 28.2906C6.01732 27.0513 4.10439 25.23 2.75451 23.012C1.40463 20.7939 0.66588 18.258 0.613362 15.662C0.560843 13.0661 1.1964 10.5024 2.45547 8.23157C3.71454 5.96074 5.55228 4.06363 7.78193 2.73298C10.0116 1.40234 12.5537 0.685589 15.1501 0.655527C17.7464 0.625465 20.3045 1.28317 22.5643 2.56183C24.8242 3.84049 26.7053 5.69455 28.0166 7.93563C29.3279 10.1767 30.0227 12.7249 30.0303 15.3215Z" fill="url(#paint0_radial_230_12251)"/>
<path d="M30.0303 15.3215L30.0303 15.3218C30.0402 17.9765 29.3305 20.5841 27.9767 22.8677C26.6229 25.1512 24.6757 27.0252 22.342 28.2904L22.1751 28.3809L22.1103 28.5594L15.3203 47.2646L8.53029 28.5594L8.46559 28.3811L8.29896 28.2906C6.01732 27.0513 4.10439 25.23 2.75451 23.012C1.40463 20.7939 0.66588 18.258 0.613362 15.662C0.560843 13.0661 1.1964 10.5024 2.45547 8.23157C3.71454 5.96074 5.55228 4.06363 7.78193 2.73298C10.0116 1.40234 12.5537 0.685589 15.1501 0.655527C17.7464 0.625465 20.3045 1.28317 22.5643 2.56183C24.8242 3.84049 26.7053 5.69455 28.0166 7.93563C29.3279 10.1767 30.0227 12.7249 30.0303 15.3215Z" stroke="#2F2E2B" stroke-miterlimit="10"/>
</g>
<defs>
<radialGradient id="paint0_radial_230_12251" cx="0" cy="0" r="1" gradientUnits="userSpaceOnUse" gradientTransform="translate(15.2344 24.7151) scale(15.2291 24.3448)">
<stop offset="0.19" stop-color="#FF4D0D"/>
<stop offset="0.52" stop-color="#FBEC40"/>
<stop offset="0.65" stop-color="#E4F05D"/>
<stop offset="1" stop-color="#8CFDCC" stop-opacity="0"/>
</radialGradient>
<clipPath id="clip0_230_12251">
<rect width="30.63" height="49.01" fill="white"/>
</clipPath>
</defs>
</svg>
